# xmcd
#
# Track frame offsets: 
#        150
#        12221
#        27330
#        41448
#        56653
#        79956
#        93119
#        106893
#        123237
#        133883
#        149803
#        170471
#
# Disc length: 2535 seconds
#
# Revision: 0
# Processed by: cddbd v1.4PL0 Copyright (c) Steve Scherf et al.
# Submitted via: ExactAudioCopy v0.95a3
#
DISCID=a009e50c
DTITLE=Andy Hart - Mad Man Blues
DYEAR=2000
DGENRE=Blues
TTITLE0=That Don´t Move Me
TTITLE1=Just Your Fool
TTITLE2=Angelie
TTITLE3=Bullfrog Blues
TTITLE4=So Glad Your´re Mine
TTITLE5=Söt Un Schön
TTITLE6=My Wife Told Me
TTITLE7=Don´t Lie To Me
TTITLE8=Achterdör
TTITLE9=Cadillac Boogie
TTITLE10=Little Girl
TTITLE11=Mad Man Blues
EXTD=
EXTT0=
EXTT1=
EXTT2=
EXTT3=
EXTT4=
EXTT5=
EXTT6=
EXTT7=
EXTT8=
EXTT9=
EXTT10=
EXTT11=
PLAYORDER=
